<?xml version="1.0" standalone="no"?><!DOCTYPE svg PUBLIC "-//W3C//DTD SVG 1.1//EN" "http://www.w3.org/Graphics/SVG/1.1/DTD/svg11.dtd"><svg t="1696814456795" class="icon" viewBox="0 0 1024 1024" version="1.1" xmlns="http://www.w3.org/2000/svg" p-id="4373" id="mx_n_1696814456796" width="16" height="16" xmlns:xlink="http://www.w3.org/1999/xlink"><path d="M512 14.208c274.56 0 497.792 223.168 497.792 497.792 0 274.56-223.168 497.792-497.792 497.792C237.44 1009.792 14.208 786.56 14.208 512 14.208 237.44 237.44 14.208 512 14.208z m0 71.104A427.072 427.072 0 0 0 85.312 512 427.072 427.072 0 0 0 512 938.688 427.072 427.072 0 0 0 938.688 512 427.072 427.072 0 0 0 512 85.312z m35.584 628.16v71.104H476.416v-71.04h71.168z m0-474.048v402.944H476.416V239.424h71.168z" fill="#049E88" p-id="4374"></path></svg>