<?xml version="1.0" standalone="no"?><!DOCTYPE svg PUBLIC "-//W3C//DTD SVG 1.1//EN" "http://www.w3.org/Graphics/SVG/1.1/DTD/svg11.dtd"><svg t="1696823498678" class="icon" viewBox="0 0 1024 1024" version="1.1" xmlns="http://www.w3.org/2000/svg" p-id="4895" xmlns:xlink="http://www.w3.org/1999/xlink" width="16" height="16"><path d="M512 213.333333l250.026667 38.826667v328.106667A241.066667 241.066667 0 0 1 512 810.666667a241.066667 241.066667 0 0 1-250.026667-230.4V252.586667L512 213.333333m0-42.666666L219.306667 216.32v363.946667A283.306667 283.306667 0 0 0 512 853.333333a283.306667 283.306667 0 0 0 292.693333-273.066666V216.32L512 170.666667z" fill="#049E88" p-id="4896"></path><path d="M466.346667 615.68l-114.773334-98.986667 41.813334-48.64 71.253333 61.866667 181.76-169.386667 43.946667 46.933334-224 208.213333z" fill="#049E88" p-id="4897"></path></svg>